<svg id="_Layer_" data-name="&lt;Layer&gt;" xmlns="http://www.w3.org/2000/svg" viewBox="0 0 2760 1840"><defs><style>.cls-1{fill:#fff;}.cls-2{fill:#ebf3fa;}.cls-3{fill:#2e3552;}.cls-4{fill:#f99746;}.cls-5{fill:#2c3a64;}.cls-6{fill:#163560;}.cls-7{fill:#204572;}.cls-8{fill:#153c6b;}.cls-9{fill:#1c468a;}.cls-10{fill:#ffb27d;}.cls-11{fill:#8c9df4;}.cls-12{fill:#ed975d;}.cls-13{fill:#6980e2;}.cls-14{fill:#2b478b;}.cls-15{fill:#f77d48;}</style></defs><rect class="cls-1" width="2760" height="1840"/><path class="cls-2" d="M567.09,1678.77s-364.67-301.93-59-702c235.71-308.46-190.58-571.76,112-770.25,327.68-214.92,656.06,151.57,1110.74-.28,431.21-144,596.68,245.81,418.76,537.39-139.09,228,421.62,293.39,128.94,923.46Z"/><path class="cls-3" d="M445.91,1666.81H2388.77a3.69,3.69,0,0,1,3.69,3.69v7a3.68,3.68,0,0,1-3.68,3.68H445.91a3.68,3.68,0,0,1-3.68-3.68v-7A3.69,3.69,0,0,1,445.91,1666.81Z"/><path class="cls-4" d="M1704.13,975.15l-1.07-.11,56.12-556,1.06.11c19.26,2,33.27,19.56,31.29,39.18l-48.94,484.92C1740.61,962.9,1723.39,977.17,1704.13,975.15Z"/><path class="cls-4" d="M1793.28,1041.72H1737v-26.6h56.26A65.64,65.64,0,0,0,1847,987.35a68.63,68.63,0,0,0,9.44-62.53l-77.69-232.74,25.24-8.42,77.68,232.74a96.23,96.23,0,0,1-13.08,86.5C1850.83,1027.57,1823.38,1041.72,1793.28,1041.72Z"/><path class="cls-4" d="M1750.53,768.6h0l14.94-148h0c23.53,2.47,40.65,23.9,38.23,47.87l-6.18,61.21C1795.1,753.63,1774.06,771.06,1750.53,768.6Z"/><rect class="cls-4" x="1720.55" y="1007.28" width="259.2" height="21.14" rx="10.47"/><path class="cls-5" d="M2064.51,1022.9H1383.86a12.5,12.5,0,0,0-12.5,12.5h0a12.5,12.5,0,0,0,12.5,12.5h680.65a12.5,12.5,0,0,0,12.5-12.5h0A12.5,12.5,0,0,0,2064.51,1022.9Z"/><path class="cls-5" d="M2022.85,1666.81h-9.13l-1.24-23-33.3-616.35a4.41,4.41,0,0,1,4.31-4.51,4.45,4.45,0,0,1,4.78,4.07l33.34,616.79Z"/><path class="cls-5" d="M2021.61,1647.82l1.24,19h-217a19,19,0,0,1,19-19Z"/><polygon class="cls-5" points="1454.17 1007.28 1610.01 990.13 1610.01 1023.38 1454.17 1023.38 1454.17 1007.28"/><path class="cls-6" d="M1769.39,1666.84h-88s-68.12,0-70-.12c-11.16-.87-9.18-54.22-8.06-74.07.25-4.6.5-7.32.5-7.32s1.11-1.62,3-4c8.31-9.93,31.27-33.26,44.42-3.35a64.09,64.09,0,0,0,8.81,14.39,92,92,0,0,0,15.51,15.63c21.34,17.62,49.63,28.66,66.75,31.77C1767.78,1644.51,1769.39,1666.84,1769.39,1666.84Z"/><path class="cls-7" d="M1714.61,1666.84h-88s-68.12,0-70-.12c-11.17-.87-9.18-54.22-8.07-74.07.25-4.6.5-7.32.5-7.32s1.11-1.62,3-4c8.31-9.93,31.26-33.26,44.42-3.35a64.09,64.09,0,0,0,8.81,14.39,92,92,0,0,0,15.5,15.63c21.35,17.62,49.64,28.66,66.76,31.77C1713,1644.51,1714.61,1666.84,1714.61,1666.84Z"/><path class="cls-8" d="M1659.57,1586.81s-5.46,3.23-17.37,5.59a124.09,124.09,0,0,1-20.48,2,239.9,239.9,0,0,1-31.88-1.11c-1.62-.25-3.1-.38-4.35-.62a57.89,57.89,0,0,1-6.7-1.24c-84-267.88-31.39-278.68-61.41-302.75-23.21-18.61-87.23-25.07-87.23-25.07H1122.69c-9.43-17.86-13.65-60.92-15.26-84.61-.75-9.93-1-16.38-1-16.38s90.33-25.81,156.09-39.95c23.7-5.22,35,6.19,46.86,5.82l18.81,6c39,1.23,249,28.78,284.34,65.14,6.57,6.7,17.26,18.44,21.85,37.67C1659.57,1340.27,1659.57,1586.81,1659.57,1586.81Z"/><path class="cls-9" d="M1622.61,1601.83a129,129,0,0,1-46.53,8.53c-19.06,0-33.16-9.47-45-12.67-84-267.88-8.2-285-38.22-309-23.21-18.61-87.23-25.07-87.23-25.07H1098.18c-9.43-17.86-13.65-60.92-15.26-84.61-.75-9.93-1-16.38-1-16.38s90.33-25.81,156.09-39.95c23.7-5.22,44.18-8.94,56.09-9.31h3.35c39,1.24,260.43,47.52,295.79,83.87,6.58,6.71,18.65,20.41,16.63,40.08C1593.71,1394.9,1622.61,1601.83,1622.61,1601.83Z"/><path class="cls-10" d="M1206,713.88c25.43,11.5,30.55,40.36,30.55,40.36-55.45,22.34-147.28-30.47-147.28-30.47s33.7-29.65,40.26-86c.34-2.84.6-5.75.78-8.71a173.39,173.39,0,0,0-.8-30.27L1159,619l49,33.55s1.13,16.43-.69,45.18C1207,702.73,1206.56,708.13,1206,713.88Z"/><path class="cls-11" d="M1277.81,1011c-.28,13.06,5,22.84,8.18,32.12a36.93,36.93,0,0,1,2.26,10.56c1.48,35.83,8,49.79,5.57,61.73,0,0-5.79-1.45-29.27,11.14-10.21,5.46-22.52,11.5-36.8,17.53l-2.26.94c-55.35,23-115.23,34.19-132.33,36-32.67,3.38-50-78.27-51.5-183.77-2.33-164.35,12.85-246.16,72.48-311.63,3.75-4.12,2.49,8.4,26.44,16.33,22.13,7.3,47.55,6.36,66.46-.5l17.39,13.72c36.73,44.11,47.37,100.78,51,148.7C1280,924.36,1278.66,973.35,1277.81,1011Z"/><path class="cls-12" d="M1208,652.54s2-2.76.18,26c-50.39-7.71-69.44-30.38-78.07-45.94-2.45-4.39,17.13-9.46,28.92-13.6Z"/><path class="cls-10" d="M1230.56,649.73s-91.94,25.65-107-31.85S1086.4,525,1144.47,506.15s75.27.13,85,18.09S1254.09,641.58,1230.56,649.73Z"/><path class="cls-5" d="M1079.81,515.79c-.87-.78-2.71-1.27-6.63-1a15.92,15.92,0,0,1,7-2.94c.15-5.52,1.86-15.47,10.9-18.94a11.73,11.73,0,0,0-4.63,9.12c9.44-12.42,31.6-23.33,96.32-26.13,85.3-3.69,64.09,53.82,53.94,61.61s-39.84-6.52-60-2.4-20.45,34-26.86,38.92-4.58-2.59-14.45-5.67-8.86,12.53-4.92,22.27-7.29,24.62-7.29,24.62l-14.7-12.4c-14.7-12.39-34.2-70.13-29.85-83.49C1079,518.18,1079.41,517,1079.81,515.79Z"/><path class="cls-13" d="M1297.45,1113.38s-21.37,10.53-46.28,20c-107.81-78.65-99.46-267.42-100.05-270.61L1286.53,982l4.46,68.85a37,37,0,0,1,.88,10.76C1288.7,1097.32,1301.44,1101.85,1297.45,1113.38Z"/><path class="cls-10" d="M1444,991.16s13.94-1.36,23.34-5.08,41.74-15.28,47.54-13.07,24.44,14.33,28.86,16.69,11.79,13.48,11.79,13.48c-3.55,3.16-14.8-5.29-20-5.47s-45.28,18.55-56.81,18.29-32-1.93-32-1.93Z"/><path class="cls-10" d="M1519.41,993.91c.06.64,13.14,17.17,24.16,12.87l-11-12.32Z"/><path class="cls-10" d="M1467.31,986.08s13.33-10.88,17.86-16.23c0,0,2.44,1.3,2.41,3.44,0,3.56-3.92,9.86-3.92,9.86Z"/><path class="cls-11" d="M1205.59,767.72c-73.84-33.9-131.88,47.12-89.11,116.2,49.6,80.11,104.36,121.24,137.09,142.57,20.4,13.29,84.34,22,203-3.7,0,0,7.2-14.2-7.21-34.94,0,0-122.11-19.15-150.11-47.92C1284.23,924.51,1206.17,768,1205.59,767.72Z"/><polygon class="cls-14" points="1221.32 1649.01 1193.95 1649.01 1186.27 1300.68 1228.08 1300.68 1221.32 1649.01"/><polygon class="cls-14" points="1340.28 1649.01 1074.07 1649.01 1074.07 1624.96 1209.75 1612.72 1340.28 1624.96 1340.28 1649.01"/><path class="cls-14" d="M1048.2,1645.23a21.9,21.9,0,1,1,21.9,21.9A21.91,21.91,0,0,1,1048.2,1645.23Z"/><path class="cls-14" d="M1314.42,1645.23a21.9,21.9,0,1,1,21.9,21.9A21.91,21.91,0,0,1,1314.42,1645.23Z"/><path class="cls-14" d="M1330.74,1323.53H1083.61a22.86,22.86,0,0,1-22.86-22.85h292.84A22.85,22.85,0,0,1,1330.74,1323.53Z"/><rect class="cls-14" x="1018.7" y="1162.6" width="15.15" height="97.37"/><path class="cls-4" d="M1023.28,1176c-.73,0-1.48,0-2.23-.1a24.63,24.63,0,0,1-22.32-26.73c8.87-98.83-4.33-204.65-17-276-13.8-77.91-29.95-132.89-30.11-133.43a24.62,24.62,0,0,1,47.22-14c.69,2.32,17,57.67,31.26,138.15,13.22,74.5,27,185.23,17.64,289.69A24.63,24.63,0,0,1,1023.28,1176Z"/><path class="cls-4" d="M1450.67,1336.73a24.55,24.55,0,0,1-11.83-3l-42.35-23.27a76.48,76.48,0,0,0-36.71-9.42H1018.21a24.62,24.62,0,1,1,0-49.24h341.57a125.86,125.86,0,0,1,60.42,15.5l42.35,23.26a24.63,24.63,0,0,1-11.88,46.21Z"/><path class="cls-15" d="M1090.18,792.92a5.87,5.87,0,1,1,5.87,5.87A5.87,5.87,0,0,1,1090.18,792.92Z"/><path class="cls-15" d="M1090.18,912.05a5.87,5.87,0,1,1,5.87,5.88A5.87,5.87,0,0,1,1090.18,912.05Z"/><path class="cls-15" d="M1090.18,1090.76a5.87,5.87,0,1,1,5.87,5.87A5.87,5.87,0,0,1,1090.18,1090.76Z"/><path class="cls-15" d="M1090.18,852.49a5.87,5.87,0,1,1,5.87,5.87A5.87,5.87,0,0,1,1090.18,852.49Z"/><path class="cls-15" d="M1090.18,1031.19a5.87,5.87,0,1,1,5.87,5.87A5.87,5.87,0,0,1,1090.18,1031.19Z"/><path class="cls-15" d="M1090.18,971.62a5.87,5.87,0,1,1,5.87,5.87A5.87,5.87,0,0,1,1090.18,971.62Z"/></svg>