<svg xmlns="http://www.w3.org/2000/svg" width="100" height="100" viewBox="0 0 100 100">
  <g id="Group_41490" data-name="Group 41490" transform="translate(-3309 4877)">
    <circle id="Ellipse_109" data-name="Ellipse 109" cx="50" cy="50" r="50" transform="translate(3309 -4877)" fill="#f5f5f6" opacity="0.999"/>
    <g id="User" transform="translate(3332.75 -4854.75)">
      <path id="Path_5714" data-name="Path 5714" d="M19.013,3.75A10.763,10.763,0,1,0,29.775,14.513,10.763,10.763,0,0,0,19.013,3.75Z" transform="translate(7.48 0)" fill="#b7bbc7"/>
      <path id="Path_5715" data-name="Path 5715" d="M15.013,13.25A10.763,10.763,0,0,0,4.25,24.013v3.41a4.411,4.411,0,0,0,3.7,4.353,115.074,115.074,0,0,0,37.085,0,4.411,4.411,0,0,0,3.7-4.353v-3.41A10.763,10.763,0,0,0,37.973,13.25h-.978a5.028,5.028,0,0,0-1.559.248l-2.484.811a20.811,20.811,0,0,1-12.918,0L17.55,13.5a5.028,5.028,0,0,0-1.559-.248Z" transform="translate(0 17.766)" fill="#b7bbc7"/>
    </g>
  </g>
</svg>
